<?xml version="1.0" standalone="no"?>
<!DOCTYPE svg PUBLIC "-//W3C//DTD SVG 20010904//EN"
 "http://www.w3.org/TR/2001/REC-SVG-20010904/DTD/svg10.dtd">
<svg version="1.0" xmlns="http://www.w3.org/2000/svg"
 width="842.000000pt" height="842.000000pt" viewBox="0 0 842.000000 842.000000"
 preserveAspectRatio="xMidYMid meet">
<metadata>
Created by potrace 1.11, written by Peter Selinger 2001-2013
</metadata>
<g transform="translate(0.000000,842.000000) scale(0.100000,-0.100000)"
fill="#000000" stroke="none">
<path d="M4048 8396 c-1 -2 -39 -6 -83 -10 -44 -3 -91 -8 -105 -10 -14 -3 -59
-10 -100 -16 -99 -16 -98 -16 -150 -30 -25 -7 -53 -14 -62 -16 -10 -2 -26 -6
-37 -8 -86 -20 -286 -90 -396 -141 -31 -14 -60 -25 -65 -25 -6 0 -10 -4 -10
-10 0 -5 -3 -9 -7 -8 -36 9 -443 -248 -550 -347 -11 -11 -41 -37 -65 -57 -90
-76 -288 -283 -327 -342 -8 -12 -19 -26 -25 -31 -47 -43 -219 -318 -293 -468
-61 -123 -176 -422 -163 -422 2 0 -1 -9 -7 -20 -6 -11 -23 -74 -38 -140 -34
-151 -32 -140 -40 -210 -4 -33 -9 -68 -11 -78 -24 -134 -23 -562 2 -690 2 -12
6 -39 9 -62 34 -246 150 -607 263 -815 16 -30 40 -75 54 -100 13 -25 32 -58
43 -75 68 -107 110 -171 115 -175 4 -3 11 -12 16 -21 59 -104 331 -389 496
-519 31 -25 67 -53 80 -64 12 -10 64 -45 113 -77 50 -32 95 -62 100 -66 9 -7
38 -23 120 -67 11 -6 22 -13 25 -16 3 -3 30 -16 60 -30 30 -14 57 -28 58 -32
2 -5 10 -8 18 -8 7 0 37 -11 66 -24 29 -13 74 -31 100 -41 l47 -17 -57 -37
c-247 -160 -471 -411 -610 -686 -37 -72 -82 -174 -82 -186 0 -4 -5 -20 -12
-36 -6 -15 -12 -32 -13 -38 -2 -5 -12 -41 -23 -80 -12 -38 -24 -88 -27 -110
-4 -22 -8 -51 -11 -65 -18 -113 -21 -162 -19 -313 2 -95 5 -181 8 -193 3 -12
8 -45 12 -75 4 -30 9 -57 11 -60 2 -3 5 -19 8 -35 19 -108 105 -333 174 -458
52 -94 133 -216 156 -235 9 -7 16 -17 16 -22 0 -15 131 -154 221 -234 63 -56
156 -125 169 -125 5 0 10 -4 10 -9 0 -5 12 -16 28 -24 15 -8 54 -30 87 -48 60
-34 61 -34 192 -34 126 0 134 1 187 29 164 86 255 259 225 428 -12 70 -17 87
-41 136 -24 49 -140 172 -163 172 -18 0 -152 103 -204 159 -123 129 -221 314
-246 461 -3 19 -8 49 -12 65 -18 85 -9 229 24 370 45 193 197 415 360 526 26
18 51 37 55 43 4 6 8 7 8 3 0 -5 12 0 28 11 54 39 175 83 290 106 73 15 247
18 312 6 25 -4 59 -10 75 -13 17 -3 44 -10 60 -17 17 -6 30 -11 30 -10 0 1 12
-3 28 -9 254 -97 468 -311 554 -556 46 -130 57 -194 56 -335 0 -113 -8 -172
-32 -251 -10 -32 -16 -61 -13 -64 3 -3 0 -5 -6 -5 -7 0 -12 -7 -12 -15 0 -9
-11 -38 -25 -65 -14 -28 -26 -53 -26 -57 -1 -5 -14 -24 -30 -44 -16 -20 -29
-40 -29 -43 0 -3 -12 -21 -27 -39 -65 -76 -157 -157 -250 -219 -89 -61 -163
-131 -163 -156 0 -5 -6 -15 -14 -21 -20 -17 -47 -125 -47 -189 0 -90 11 -135
47 -201 47 -88 123 -155 214 -191 40 -16 74 -20 165 -20 81 0 115 3 115 12 0
6 3 9 6 5 15 -15 239 126 334 209 140 124 265 267 355 408 41 64 138 256 150
296 4 14 11 30 15 35 4 6 13 33 20 60 7 28 16 55 19 60 3 6 6 15 8 20 1 6 11
51 22 100 27 127 39 226 42 360 2 92 -14 285 -27 326 -2 10 -6 30 -8 45 -12
93 -75 279 -139 414 -37 79 -133 240 -170 286 -105 131 -176 207 -278 299 -48
43 -219 165 -233 166 -6 0 14 10 44 23 162 66 305 135 404 195 38 22 70 41 72
41 14 0 265 187 348 260 86 75 268 265 332 345 21 28 42 52 47 53 4 2 7 10 7
18 0 8 4 14 8 14 5 0 28 30 53 68 24 37 47 69 51 70 5 2 8 8 8 13 0 5 15 32
34 61 123 194 278 569 313 757 2 14 6 28 8 31 2 4 7 20 9 36 3 16 8 40 11 54
4 22 12 67 30 180 25 156 25 534 0 700 -2 14 -6 48 -10 75 -4 28 -11 70 -17
95 -5 25 -11 52 -13 60 -4 17 -35 150 -39 165 -2 6 -6 17 -9 25 -3 8 -11 33
-17 55 -17 58 -59 172 -86 233 -13 29 -24 55 -24 58 0 17 -126 254 -171 322
-16 24 -29 47 -29 53 0 5 -4 9 -10 9 -5 0 -10 7 -10 15 0 8 -4 15 -9 15 -5 0
-12 8 -16 19 -3 10 -16 30 -28 43 -12 14 -29 35 -37 48 -8 12 -22 30 -30 40
-8 11 -23 29 -33 42 -87 114 -298 321 -422 416 -33 25 -62 49 -65 52 -9 12
-185 127 -245 161 -33 18 -62 35 -65 38 -8 9 -169 87 -260 126 -93 40 -335
122 -384 131 -17 2 -47 9 -66 14 -40 10 -81 19 -125 26 -16 2 -41 7 -54 10
-13 3 -46 7 -75 10 -28 3 -62 8 -76 10 -27 6 -446 14 -452 10z m384 -956 c24
-5 64 -11 90 -14 199 -26 509 -150 681 -272 26 -19 51 -34 56 -34 5 0 11 -3
13 -7 2 -5 26 -26 53 -48 184 -147 338 -328 450 -530 42 -75 43 -76 66 -130
11 -27 27 -63 35 -80 22 -51 80 -244 89 -300 2 -11 7 -38 10 -60 4 -22 8 -51
11 -65 2 -14 6 -97 8 -185 3 -145 -2 -236 -18 -335 -12 -66 -69 -285 -78 -296
-5 -7 -10 -21 -13 -32 -4 -23 -33 -89 -83 -192 -32 -64 -153 -255 -171 -270
-3 -3 -26 -30 -51 -60 -92 -112 -334 -329 -367 -330 -7 0 -13 -4 -13 -10 0 -5
-7 -10 -15 -10 -8 0 -15 -3 -15 -7 0 -10 -92 -58 -148 -77 -29 -11 -72 -14
-135 -12 -78 2 -102 7 -157 33 -106 49 -183 135 -220 243 -41 117 -25 251 41
355 39 62 71 92 174 160 239 160 397 402 432 665 24 181 -2 360 -75 520 -14
30 -26 57 -26 60 -6 25 -110 163 -166 219 -117 118 -286 217 -419 246 -11 3
-31 7 -43 10 -81 19 -126 23 -233 20 -66 -2 -130 -6 -142 -9 -13 -4 -33 -8
-44 -11 -195 -42 -389 -163 -526 -327 -35 -43 -93 -132 -93 -144 0 -6 -7 -17
-15 -24 -8 -7 -13 -16 -10 -20 3 -5 1 -11 -5 -15 -5 -3 -21 -43 -36 -88 -41
-129 -43 -141 -48 -273 -6 -168 29 -319 111 -474 72 -135 184 -259 305 -339
110 -73 136 -93 180 -149 23 -28 53 -90 63 -127 5 -16 10 -37 12 -45 9 -30 3
-153 -8 -189 -23 -70 -59 -130 -109 -180 -42 -42 -95 -80 -120 -86 -3 -1 -17
-7 -32 -13 -30 -12 -156 -31 -162 -24 -3 2 -25 6 -50 8 -103 8 -319 149 -497
326 -92 91 -213 241 -260 323 -13 22 -26 42 -29 45 -12 11 -106 215 -140 305
-10 24 -41 129 -44 147 -1 7 -5 22 -9 33 -3 11 -9 36 -12 55 -3 19 -10 60 -16
90 -8 43 -20 200 -21 275 0 32 13 204 17 225 3 14 8 45 11 70 3 25 10 52 15
61 4 9 6 18 4 21 -3 3 2 29 11 59 9 30 17 59 19 64 2 11 3 14 42 120 31 86
124 275 135 275 4 0 8 4 8 10 0 11 59 105 86 137 11 12 28 34 39 49 22 30 86
102 145 163 79 81 312 258 368 278 9 4 19 9 22 13 9 10 172 86 225 105 28 9
59 21 70 26 53 22 226 62 325 74 30 4 56 8 58 10 7 6 354 2 394 -5z"/>
</g>
</svg>
