<?xml version="1.0" encoding="utf-8"?>
<!-- Generator: Adobe Illustrator 20.0.0, SVG Export Plug-In . SVG Version: 6.00 Build 0)  -->
<!DOCTYPE svg PUBLIC "-//W3C//DTD SVG 1.1//EN" "http://www.w3.org/Graphics/SVG/1.1/DTD/svg11.dtd">
<svg version="1.1" id="Calque_1" xmlns="http://www.w3.org/2000/svg" xmlns:xlink="http://www.w3.org/1999/xlink" x="0px" y="0px"
	 viewBox="0 0 595.3 841.9" style="enable-background:new 0 0 595.3 841.9;" xml:space="preserve">
<style type="text/css">
	.st0{fill:#FFF;}
</style>
<g>
	<path class="st0" d="M571,274C571,123.3,448.9,1.1,298.2,1.1S25.3,123.3,25.3,274c0,118.4,75.4,219.1,180.8,256.9
		c-51.5,31.2-86,87.9-86,152.4c0,63.3,34.1,122.3,89,154.1c19.9,11.5,45.4,4.7,57-15.2c11.5-19.9,4.7-45.4-15.2-57
		c-29.3-16.9-47.4-48.3-47.4-82c0-52.2,42.5-94.7,94.8-94.7c52.2,0,94.7,42.5,94.7,94.7c0,33.6-18.2,65-47.4,82
		c-19.9,11.5-26.7,37-15.2,57c7.7,13.3,21.7,20.8,36.1,20.8c7.1,0,14.3-1.8,20.9-5.6c54.9-31.8,89-90.9,89-154.1
		c0-64.5-34.5-121.1-86-152.4C495.7,493.1,571,392.4,571,274z M387.3,428.1c-6.6,3.8-13.8,5.6-20.9,5.6c-14.4,0-28.4-7.5-36.1-20.8
		c-11.5-19.9-4.7-45.4,15.2-57c29.2-17,47.4-48.4,47.4-82c0-52.2-42.5-94.7-94.7-94.7c-52.3,0-94.8,42.5-94.8,94.7
		c0,33.6,18.2,65,47.4,82c19.9,11.5,26.7,37.1,15.2,57s-37.1,26.7-57,15.2c-54.9-31.8-89-90.9-89-154.1
		c0-98.2,79.9-178.1,178.1-178.1S476.2,175.8,476.2,274C476.3,337.3,442.2,396.3,387.3,428.1z"/>
</g>
</svg>
